<mxfile host="65bd71144e" modified="2020-11-09T18:32:46.248Z" agent="5.0 (Windows NT 10.0; Win64; x64) AppleWebKit/537.36 (KHTML, like Gecko) Code/1.51.0 Chrome/83.0.4103.122 Electron/9.3.3 Safari/537.36" version="13.6.5" etag="7Il2os7gRJ_vC5dR7YJI">
    <diagram id="ru844-jvGQTwk1_Tk22B" name="Page-1">
        <mxGraphModel dx="275" dy="185" grid="1" gridSize="10" guides="1" tooltips="1" connect="1" arrows="1" fold="1" page="1" pageScale="1" pageWidth="850" pageHeight="1100" math="0" shadow="0">
            <root>
                <mxCell id="0"/>
                <mxCell id="1" parent="0"/>
                <mxCell id="3" value="" style="ellipse;whiteSpace=wrap;html=1;fillColor=none;" vertex="1" parent="1">
                    <mxGeometry x="360" y="360" width="120" height="120" as="geometry"/>
                </mxCell>
                <mxCell id="4" value="" style="ellipse;shape=cloud;whiteSpace=wrap;html=1;strokeColor=#82b366;fillColor=none;" vertex="1" parent="1">
                    <mxGeometry x="438" y="391" width="35" height="30" as="geometry"/>
                </mxCell>
                <mxCell id="5" value="" style="ellipse;shape=cloud;whiteSpace=wrap;html=1;strokeColor=#b85450;fillColor=none;" vertex="1" parent="1">
                    <mxGeometry x="445" y="330" width="40" height="30" as="geometry"/>
                </mxCell>
                <mxCell id="7" value="" style="endArrow=none;html=1;rounded=0;endSize=6;" edge="1" parent="1">
                    <mxGeometry width="50" height="50" relative="1" as="geometry">
                        <mxPoint x="420" y="425" as="sourcePoint"/>
                        <mxPoint x="420" y="415" as="targetPoint"/>
                        <Array as="points">
                            <mxPoint x="420" y="415"/>
                        </Array>
                    </mxGeometry>
                </mxCell>
                <mxCell id="8" value="" style="endArrow=none;html=1;rounded=0;endSize=6;" edge="1" parent="1">
                    <mxGeometry width="50" height="50" relative="1" as="geometry">
                        <mxPoint x="415" y="420" as="sourcePoint"/>
                        <mxPoint x="425" y="420" as="targetPoint"/>
                    </mxGeometry>
                </mxCell>
                <mxCell id="9" value="" style="endArrow=none;html=1;rounded=0;endSize=6;fillColor=#f8cecc;strokeColor=#b85450;" edge="1" parent="1">
                    <mxGeometry width="50" height="50" relative="1" as="geometry">
                        <mxPoint x="451" y="374" as="sourcePoint"/>
                        <mxPoint x="451" y="364" as="targetPoint"/>
                        <Array as="points">
                            <mxPoint x="451" y="364"/>
                        </Array>
                    </mxGeometry>
                </mxCell>
                <mxCell id="10" value="" style="endArrow=none;html=1;rounded=0;endSize=6;fillColor=#f8cecc;strokeColor=#b85450;" edge="1" parent="1">
                    <mxGeometry width="50" height="50" relative="1" as="geometry">
                        <mxPoint x="446" y="369" as="sourcePoint"/>
                        <mxPoint x="456" y="369" as="targetPoint"/>
                    </mxGeometry>
                </mxCell>
                <mxCell id="16" value="" style="endArrow=none;dashed=1;html=1;strokeColor=#b85450;fillColor=#f8cecc;" edge="1" parent="1">
                    <mxGeometry width="50" height="50" relative="1" as="geometry">
                        <mxPoint x="420" y="420" as="sourcePoint"/>
                        <mxPoint x="465" y="345" as="targetPoint"/>
                    </mxGeometry>
                </mxCell>
                <mxCell id="17" value="" style="endArrow=diamond;html=1;strokeColor=#82b366;fillColor=#d5e8d4;dashed=1;endFill=1;" edge="1" parent="1">
                    <mxGeometry width="50" height="50" relative="1" as="geometry">
                        <mxPoint x="423" y="417" as="sourcePoint"/>
                        <mxPoint x="480" y="395.5" as="targetPoint"/>
                    </mxGeometry>
                </mxCell>
            </root>
        </mxGraphModel>
    </diagram>
</mxfile>